Dip1990


         The Sixth Sense [1999] 720P BRRip[Dual-Audio][Eng-Hindi]_Dip1990


General
Complete name                    : The Sixth Sense [1999] 720P BRRip[Dual-Audio][Eng-Hindi]_Dip1990.mkv
IMDB Rating                      : 8.2/10   238,293 votes
Format                           : Matroska
File size                        : 1.95 GiB
Duration                         : 1h 47mn
Overall bit rate                 : 2 604 Kbps
Encoded date                     : UTC 2010-03-31 19:36:06
Writing application              : mkvmerge v3.3.0 ('Language') built on Mar 24 2010 14:59:24
Writing library                  : libebml v0.8.0 + libmatroska v0.9.0

Video
ID                               : 1
Format                           : AVC
Format/Info                      : Advanced Video Codec
Format profile                   : High@L4.1
Format settings, CABAC           : Yes
Format settings, ReFrames        : 4 frames
Muxing mode                      : Container profile=Unknown@4.1
Codec ID                         : V_MPEG4/ISO/AVC
Duration                         : 1h 47mn
Bit rate                         : 2 282 Kbps
Width                            : 1 280 pixels
Height                           : 694 pixels
Display aspect ratio             : 16:9
Frame rate                       : 23.976 fps
Color space                      : YUV
Chroma subsampling               : 4:2:0
Bit depth                        : 8 bits
Scan type                        : Progressive
Bits/(Pixel*Frame)               : 0.107
Stream size                      : 1.67 GiB (86%)
Title                            : The Sixth Sense
Writing library                  : x264 core 67 r1165M 6841c5e
Encoding settings                : cabac=1 / ref=4 / deblock=1:-1:-1 / analyse=0x3:0x113 / me=umh / subme=7 / psy_rd=1.0:0.0 / mixed_ref=1 / me_range=16 / chroma_me=1 / trellis=2 / 8x8dct=1 / cqm=0 / deadzone=21,11 / chroma_qp_offset=-2 / threads=4 / nr=0 / decimate=1 / mbaff=0 / bframes=3 / b_pyramid=0 / b_adapt=2 / b_bias=0 / direct=3 / wpredb=1 / keyint=250 / keyint_min=25 / scenecut=40 / rc=2pass / bitrate=2282 / ratetol=1.0 / qcomp=0.60 / qpmin=10 / qpmax=51 / qpstep=4 / cplxblur=20.0 / qblur=0.5 / vbv_maxrate=50000 / vbv_bufsize=50000 / ip_ratio=1.40 / pb_ratio=1.30 / aq=1:1.00
Language                         : English

Audio #1
ID                               : 3
Format                           : MPEG Audio
Format version                   : Version 1
Format profile                   : Layer 3
Mode                             : Joint stereo
Mode extension                   : MS Stereo
Codec ID                         : A_MPEG/L3
Codec ID/Hint                    : MP3
Duration                         : 1h 47mn
Bit rate mode                    : Constant
Bit rate                         : 160 Kbps
Channel(s)                       : 2 channels
Sampling rate                    : 48.0 KHz
Stream size                      : 123 MiB (6%)
Title                            : The Sixth Sense - English
Language                         : English

Audio #2
ID                               : 4
Format                           : MPEG Audio
Format version                   : Version 1
Format profile                   : Layer 3
Mode                             : Joint stereo
Codec ID                         : A_MPEG/L3
Codec ID/Hint                    : MP3
Duration                         : 1h 47mn
Bit rate mode                    : Constant
Bit rate                         : 160 Kbps
Channel(s)                       : 2 channels
Sampling rate                    : 48.0 KHz
Stream size                      : 123 MiB (6%)
Title                            : The Sixth Sense - Hindi
Language                         : Hindi

Text
ID                               : 2
Format                           : SSA
Codec ID                         : S_TEXT/SSA
Codec ID/Info                    : Sub Station Alpha
Title                            : The Sixth Sense - English
Language                         : English

Screens: 
http://img706.imageshack.us/img706/844/thesixthsense1999dualau.jpg 
http://img214.imageshack.us/img214/844/thesixthsense1999dualau.jpg 
http://img844.imageshack.us/img844/844/thesixthsense1999dualau.jpg 
http://img85.imageshack.us/img85/844/thesixthsense1999dualau.jpg 
http://img80.imageshack.us/img80/844/thesixthsense1999dualau.jpg 
http://img163.imageshack.us/img163/844/thesixthsense1999dualau.jpg 
http://img827.imageshack.us/img827/844/thesixthsense1999dualau.jpg 
http://img718.imageshack.us/img718/844/thesixthsense1999dualau.jpg

Sample: